<svg version="1.2" xmlns="http://www.w3.org/2000/svg" viewBox="0 0 1067 1067" width="1067" height="1067"><defs><linearGradient id="P" gradientUnits="userSpaceOnUse"/><radialGradient id="g1" cx="533" cy="533" r="547.2" href="#P"><stop stop-color="#318bf3"/></radialGradient></defs><style>.A{opacity:.1;fill:url(#g1)}</style><path class="A" d="m435.5-216.6h195l-97.5 751.6zm97.5 751.7l97.5 747.6h-195zm749.6-99.6v195l-751.6-97.5zm-751.7 97.5l-747.6 97.6v-195.1zm292.4-697.9l168.9 97.5l-460.3 602.2zm-291.3 699.7l-289.4 696.2l-168.9-97.5zm699 288.6l-97.5 168.9l-602.2-460.3zm-699.7-291.4l-696.2-289.3l97.5-168.9zm-457.5-599.4l168.9-97.5l291.4 699.7zm460.3 602.1l458.2 598.7l-168.9 97.5zm599.4-461l97.5 168.9l-699.7 291.4zm-602.2 460.3l-598.6 458.2l-97.5-168.9z"/></svg>